<?xml version="1.0" standalone="no"?>
<!DOCTYPE svg PUBLIC "-//W3C//DTD SVG 20010904//EN"
 "http://www.w3.org/TR/2001/REC-SVG-20010904/DTD/svg10.dtd">
<svg version="1.0" xmlns="http://www.w3.org/2000/svg"
 width="1080.000000pt" height="726.000000pt" viewBox="0 0 1080.000000 726.000000"
 preserveAspectRatio="xMidYMid meet">

<g transform="translate(0.000000,726.000000) scale(0.100000,-0.100000)"
fill="#000000" stroke="none">
<path d="M4580 6255 c-58 -13 -136 -35 -175 -49 -431 -164 -734 -584 -852
-1186 -15 -74 -33 -143 -41 -152 -18 -21 -61 -23 -84 -5 -8 6 -34 40 -57 74
-102 154 -277 335 -496 514 -92 75 -259 197 -292 212 -13 6 -23 14 -23 19 0 4
-5 8 -10 8 -6 0 -37 16 -68 37 -121 77 -377 193 -427 193 -12 0 -15 -19 -15
-107 0 -483 163 -1100 396 -1499 l24 -40 -31 -30 c-17 -16 -60 -65 -94 -109
-161 -205 -255 -408 -311 -671 -24 -114 -27 -150 -27 -314 0 -162 4 -201 27
-315 57 -272 165 -491 350 -713 71 -84 150 -163 211 -211 l30 -23 -3 -123 c-3
-110 -1 -135 23 -217 31 -112 135 -326 178 -368 43 -42 82 -40 182 9 44 22
111 53 149 71 57 25 258 149 276 170 3 3 29 21 57 39 l53 33 106 -7 c103 -7
108 -9 192 -57 194 -112 455 -215 641 -253 46 -9 84 -15 85 -13 13 16 92 219
113 287 19 67 26 112 28 201 5 244 1 222 39 248 50 34 173 157 241 242 104
128 95 89 94 432 l0 303 -24 -85 c-62 -225 -181 -435 -337 -594 -59 -60 -60
-61 -70 -36 -12 32 -85 127 -103 133 -7 3 -39 -1 -70 -9 -31 -8 -59 -14 -60
-12 -2 2 28 36 65 76 44 46 77 72 90 72 39 0 76 31 117 99 51 84 88 168 109
251 12 49 23 71 47 91 26 22 32 35 37 85 4 36 1 92 -8 144 -14 83 -15 106 -10
174 3 46 -51 153 -159 312 -102 151 -158 259 -176 340 -13 54 -12 65 9 139 12
44 29 98 36 119 l15 40 86 -83 c197 -189 313 -386 391 -666 13 -46 14 -25 15
253 l1 303 -61 80 c-79 104 -158 188 -253 269 -42 35 -76 68 -76 73 0 4 34 81
75 170 84 184 101 238 110 363 10 132 -10 306 -70 610 -65 327 -78 442 -69
580 l7 104 -24 -1 c-13 0 -71 -11 -129 -24z m-6 -256 c3 -40 24 -137 46 -218
61 -224 110 -503 117 -661 9 -207 1 -239 -139 -540 -68 -144 -97 -216 -143
-342 -83 -234 -90 -268 -88 -413 2 -163 21 -241 22 -92 1 53 4 97 9 97 4 0 24
-38 46 -83 21 -45 73 -134 116 -197 78 -116 110 -171 110 -188 0 -6 -26 1 -57
14 -32 13 -74 24 -93 23 l-35 0 45 -42 c72 -66 135 -149 169 -221 34 -73 64
-173 55 -187 -3 -5 -20 2 -37 15 -44 33 -95 57 -100 48 -3 -4 2 -36 11 -71 13
-55 14 -76 3 -150 -16 -109 -66 -241 -91 -241 -5 0 -14 33 -20 73 -15 84 -26
117 -40 117 -5 0 -10 -11 -10 -25 0 -29 -39 -134 -70 -190 -68 -122 -198 -242
-322 -299 -120 -56 -236 -87 -238 -63 0 4 0 28 0 55 l0 47 63 33 c93 47 171
130 199 209 24 67 29 70 81 48 30 -13 18 9 -19 33 -98 64 -328 44 -789 -69
-88 -21 -170 -39 -182 -39 -34 0 -28 -21 22 -89 29 -40 67 -76 104 -99 54 -34
60 -41 66 -80 3 -24 5 -46 2 -48 -8 -8 -105 31 -172 70 -126 73 -350 321 -421
465 -28 57 -36 123 -20 174 7 25 6 28 -10 25 -27 -4 -30 32 -5 72 27 45 116
135 160 162 30 19 33 23 16 26 -72 12 -95 23 -95 45 0 12 8 34 18 48 18 27
130 129 142 129 4 0 16 -19 26 -42 10 -24 44 -69 75 -100 62 -63 101 -80 50
-23 -85 97 -143 284 -144 465 -1 159 27 256 105 360 12 17 19 32 16 35 -8 8
-94 -84 -115 -122 -10 -18 -21 -33 -26 -33 -13 0 -105 95 -189 195 -297 357
-452 758 -533 1379 -8 66 -13 121 -11 124 6 6 171 -88 291 -166 224 -144 356
-250 535 -431 159 -161 272 -324 327 -475 16 -45 45 -158 41 -160 -103 -48
-187 -107 -209 -148 -11 -21 -10 -21 22 5 132 106 370 157 569 121 19 -3 16 1
-13 17 -22 11 -66 25 -100 30 -34 6 -64 13 -67 15 -3 3 -5 83 -4 177 1 309 54
556 178 836 113 255 287 441 509 547 73 34 203 83 223 84 7 0 14 -29 18 -71z
m-1896 -2005 c42 -42 103 -94 135 -116 l57 -41 0 -103 c0 -56 -5 -115 -11
-131 -7 -15 -12 -63 -12 -105 0 -43 -2 -78 -6 -78 -12 -1 -78 -66 -120 -120
-24 -30 -60 -88 -81 -130 -37 -74 -37 -76 -38 -200 0 -112 3 -134 30 -215 37
-115 78 -187 171 -303 94 -117 116 -141 206 -224 41 -38 71 -68 68 -68 -3 0
-33 9 -68 19 -64 20 -203 51 -227 51 -7 0 -33 -19 -58 -42 l-45 -41 -50 49
c-73 71 -93 102 -79 118 9 11 0 29 -38 83 -267 368 -322 833 -153 1282 11 30
19 57 16 59 -6 6 69 143 104 192 35 49 112 140 117 140 3 0 40 -34 82 -76z
m1130 -1703 c-2 -200 -7 -272 -16 -284 -15 -18 -138 -35 -152 -21 -5 5 -14 72
-20 149 -5 77 -15 191 -22 253 -6 62 -8 115 -5 118 6 6 182 52 206 53 11 1 13
-45 9 -268z m-253 197 c2 -7 11 -96 20 -198 9 -102 19 -211 24 -243 4 -32 4
-60 0 -62 -15 -10 -98 -17 -121 -12 -20 5 -26 17 -37 69 -21 100 -61 360 -61
394 0 32 0 32 78 47 42 8 81 15 85 16 4 0 10 -5 12 -11z"/>
<path d="M3940 5514 c-47 -142 -60 -301 -36 -449 34 -204 133 -441 273 -653
72 -107 93 -126 93 -80 0 64 80 287 171 477 33 69 56 122 51 116 -57 -63 -158
-234 -212 -358 -19 -42 -39 -76 -44 -74 -6 2 -28 28 -48 58 -21 30 -42 60 -48
67 -22 26 -127 240 -148 303 -61 182 -79 395 -47 550 17 79 14 102 -5 43z"/>
<path d="M2543 5315 c135 -167 210 -315 272 -530 24 -86 50 -202 60 -275 l6
-45 -33 40 c-72 89 -234 235 -260 235 -6 0 18 -30 53 -67 113 -118 222 -267
299 -408 44 -81 50 -86 50 -40 0 65 -38 339 -55 402 -21 73 -63 202 -75 228
-5 11 -23 51 -40 89 -47 107 -149 253 -250 357 l-91 94 64 -80z"/>
<path d="M3991 3875 c-11 -19 -28 -56 -37 -82 -20 -57 -30 -193 -17 -218 8
-13 12 9 15 81 4 79 11 115 36 177 16 42 29 77 27 77 -2 0 -12 -16 -24 -35z"/>
<path d="M4097 3852 c-63 -70 -82 -241 -38 -334 14 -29 30 -48 40 -48 53 0
121 85 121 152 0 44 -24 119 -56 179 -36 65 -47 73 -67 51z m63 -137 c0 -8 -7
-15 -15 -15 -8 0 -15 7 -15 15 0 8 7 15 15 15 8 0 15 -7 15 -15z m-31 -39 c17
-36 5 -79 -24 -84 -37 -8 -58 54 -34 99 14 27 41 20 58 -15z"/>
<path d="M3276 3289 c-26 -89 -36 -158 -35 -233 l1 -71 14 100 c8 55 21 133
29 174 18 88 13 105 -9 30z"/>
<path d="M3630 3264 c1 -10 14 -44 31 -74 31 -57 31 -51 -3 35 -23 58 -28 66
-28 39z"/>
<path d="M3712 2791 c-87 -96 -156 -142 -220 -148 -54 -5 -95 10 -166 61 -28
19 -52 33 -54 31 -12 -12 73 -96 120 -119 105 -53 210 -22 298 86 49 62 106
156 98 164 -3 2 -37 -31 -76 -75z"/>
<path d="M6490 4651 c-41 -3 -80 -9 -87 -14 -10 -7 -76 -109 -124 -194 -10
-17 -75 -128 -145 -245 -152 -254 -246 -412 -339 -570 -38 -64 -72 -115 -77
-112 -4 3 -8 259 -8 570 l0 564 -220 0 -220 0 0 -1425 0 -1425 220 0 220 0 0
595 c0 327 4 595 9 595 9 0 121 -185 121 -200 0 -4 3 -10 8 -12 4 -1 41 -61
82 -133 67 -118 177 -307 200 -345 5 -8 48 -82 96 -165 145 -249 175 -299 197
-322 20 -23 21 -23 338 -23 191 0 320 4 324 10 5 7 -35 76 -105 180 -22 33
-111 171 -180 280 -80 127 -102 161 -212 330 -41 63 -116 180 -167 260 -52 80
-106 165 -122 190 -16 25 -34 52 -39 60 -45 66 -105 160 -117 184 -14 28 -14
31 28 90 23 33 72 104 108 156 36 52 83 120 106 151 22 31 67 96 100 143 33
48 69 89 80 92 11 3 335 3 720 2 l700 -3 50 -26 c112 -59 140 -123 140 -314 0
-112 -2 -124 -28 -178 -31 -62 -72 -95 -160 -129 -44 -17 -92 -18 -681 -18
l-633 0 -7 -52 c-9 -80 -7 -235 4 -306 18 -108 45 -168 123 -269 18 -23 55
-78 82 -123 28 -44 92 -145 142 -223 l93 -142 0 208 0 207 334 0 c395 0 361
12 427 -145 22 -55 61 -145 84 -200 24 -55 70 -162 102 -238 32 -76 66 -147
76 -158 17 -18 37 -19 577 -19 l560 0 0 365 0 365 -428 0 -428 0 -43 36 c-37
32 -101 135 -101 163 0 6 13 17 28 25 50 26 130 105 170 169 106 168 160 382
169 677 6 199 -4 296 -47 466 -66 254 -197 435 -384 527 -144 71 -138 70 -931
72 -390 1 -744 -1 -785 -4z"/>
<path d="M8742 3753 l3 -898 615 -3 c338 -1 624 0 636 2 20 5 37 37 87 166 14
36 64 163 111 282 47 120 86 222 86 228 0 7 -187 10 -545 10 l-545 0 0 190 0
190 431 0 c266 0 437 4 449 10 11 6 37 59 66 132 26 68 72 184 102 258 52 129
107 275 119 313 5 16 -38 17 -806 17 l-811 0 2 -897z"/>
<path d="M5630 1410 c0 -28 3 -30 35 -30 32 0 35 2 35 30 0 28 -3 30 -35 30
-32 0 -35 -2 -35 -30z"/>
<path d="M6330 1300 l0 -140 40 0 40 0 0 140 0 140 -40 0 -40 0 0 -140z"/>
<path d="M6470 1411 c0 -30 2 -31 41 -31 38 0 40 1 37 28 -3 23 -8 27 -40 30
-36 3 -38 2 -38 -27z"/>
<path d="M7930 1410 c0 -28 3 -30 35 -30 32 0 35 2 35 30 0 28 -3 30 -35 30
-32 0 -35 -2 -35 -30z"/>
<path d="M5300 1295 l0 -135 40 0 c39 0 40 1 40 33 0 30 32 77 52 77 3 0 20
-25 37 -55 30 -52 33 -55 71 -55 22 0 40 2 40 5 0 3 -20 40 -45 83 -25 42 -45
80 -45 85 0 5 16 28 36 50 l35 42 -33 3 c-29 3 -39 -3 -90 -60 l-57 -63 -1 63
0 62 -40 0 -40 0 0 -135z"/>
<path d="M6740 1295 l0 -135 39 0 40 0 3 53 c3 50 4 52 33 52 25 0 32 -7 54
-52 25 -52 27 -53 68 -53 24 0 43 3 43 6 0 4 -8 21 -19 38 -34 56 -35 75 -7
97 42 33 32 89 -21 117 -12 7 -66 12 -127 12 l-106 0 0 -135z m197 65 c6 -30
-15 -44 -64 -44 -47 -1 -48 0 -51 32 l-3 33 58 -3 c42 -2 59 -7 60 -18z"/>
<path d="M7360 1295 l0 -135 24 0 c13 0 26 6 29 13 3 10 9 10 26 0 35 -22 96
-16 128 11 24 21 28 32 28 74 0 68 -30 102 -90 102 -22 0 -46 -5 -53 -12 -9
-9 -12 -2 -12 35 l0 47 -40 0 -40 0 0 -135z m141 25 c14 -8 19 -21 19 -53 0
-55 -11 -69 -46 -65 -27 3 -29 6 -32 53 -3 38 1 52 14 62 21 16 21 16 45 3z"/>
<path d="M7650 1295 c0 -126 1 -135 19 -135 11 0 21 6 24 13 3 10 9 10 26 0
26 -16 101 -16 122 0 24 18 39 52 39 87 0 35 -15 69 -39 87 -19 15 -101 17
-101 3 0 -5 -4 -10 -10 -10 -5 0 -10 20 -10 45 0 45 0 45 -35 45 l-35 0 0
-135z m148 -38 c-3 -49 -5 -52 -32 -55 -34 -4 -46 10 -46 58 0 54 26 77 63 58
15 -7 17 -19 15 -61z"/>
<path d="M8390 1428 c-6 -34 -10 -226 -6 -244 5 -20 12 -24 46 -24 l40 0 0 55
0 54 63 3 c54 3 62 5 62 23 0 18 -8 20 -62 23 -62 3 -63 3 -63 32 l0 30 80 0
c79 0 80 0 80 25 l0 25 -120 0 c-66 0 -120 -1 -120 -2z"/>
<path d="M9680 1295 l0 -135 110 0 110 0 0 25 c0 24 -2 25 -70 25 l-70 0 0
110 0 110 -40 0 -40 0 0 -135z"/>
<path d="M10270 1391 l0 -40 -54 6 c-49 5 -57 3 -80 -20 -37 -37 -37 -117 -1
-152 27 -28 91 -35 114 -12 11 10 14 10 18 0 3 -7 20 -13 39 -13 l34 0 0 135
0 135 -35 0 c-34 0 -35 -1 -35 -39z m-10 -95 c8 -23 5 -69 -6 -88 -10 -16 -53
-8 -64 11 -13 24 -13 43 0 75 13 35 57 36 70 2z"/>
<path d="M8085 1390 c-5 -21 -13 -30 -26 -30 -26 0 -25 -36 1 -43 17 -4 20
-14 20 -69 0 -36 5 -69 12 -76 7 -7 36 -12 65 -12 46 0 53 3 53 19 0 14 -8 21
-27 23 -27 3 -28 5 -28 58 0 53 1 55 28 58 19 2 27 9 27 23 0 14 -7 19 -30 19
-27 0 -30 3 -30 30 0 26 -3 30 -29 30 -25 0 -31 -5 -36 -30z"/>
<path d="M9954 1390 c-5 -21 -12 -30 -25 -30 -26 0 -25 -36 1 -43 17 -4 20
-14 20 -69 0 -36 5 -69 12 -76 7 -7 36 -12 65 -12 46 0 53 3 53 19 0 14 -8 21
-27 23 -27 3 -28 5 -28 58 0 53 1 55 28 58 19 2 27 9 27 23 0 14 -7 19 -30 19
-27 0 -30 3 -30 30 0 27 -3 30 -30 30 -26 0 -31 -5 -36 -30z"/>
<path d="M5982 1392 c-13 -2 -26 -10 -29 -18 -4 -10 -23 -14 -70 -14 -78 0
-123 -20 -123 -55 0 -13 6 -30 14 -37 12 -11 11 -16 -7 -36 -17 -18 -19 -26
-10 -41 9 -14 8 -22 -4 -34 -38 -38 12 -67 116 -67 116 0 170 34 137 85 -13
19 -27 24 -83 30 -97 9 -96 9 -101 23 -2 8 10 12 45 12 65 0 118 27 117 60 0
14 -3 32 -5 40 -2 9 4 16 19 18 12 2 22 10 22 17 0 18 -9 22 -38 17z m-68 -78
c8 -22 -11 -44 -39 -44 -27 0 -49 24 -41 45 8 21 72 20 80 -1z m31 -163 c3 -6
-3 -15 -14 -20 -37 -20 -121 -10 -121 15 0 11 16 14 64 14 36 0 67 -4 71 -9z"/>
<path d="M5630 1260 l0 -100 35 0 35 0 0 100 0 100 -35 0 -35 0 0 -100z"/>
<path d="M6078 1344 c-16 -8 -28 -21 -28 -29 0 -20 57 -20 76 0 19 19 48 19
64 0 18 -22 5 -32 -49 -37 -64 -6 -101 -30 -101 -65 0 -14 8 -32 18 -39 21
-17 86 -18 115 -3 16 9 22 9 25 0 2 -6 19 -11 38 -11 l34 0 0 84 c0 76 -2 86
-22 100 -29 21 -133 20 -170 0z m108 -129 c-21 -32 -59 -31 -64 2 -3 18 3 24
30 31 43 12 55 0 34 -33z"/>
<path d="M6470 1260 l0 -100 40 0 40 0 0 100 0 100 -40 0 -40 0 0 -100z"/>
<path d="M7102 1340 c-31 -29 -27 -40 13 -40 19 0 35 4 35 9 0 16 38 23 60 11
33 -18 18 -34 -38 -41 -69 -9 -102 -31 -102 -69 0 -19 7 -33 19 -40 27 -14
104 -13 120 3 11 10 14 10 18 0 3 -7 20 -13 39 -13 l34 0 0 84 c0 105 -11 116
-110 116 -53 0 -71 -4 -88 -20z m114 -125 c-21 -32 -59 -31 -64 2 -3 18 3 24
30 31 43 12 55 0 34 -33z"/>
<path d="M7930 1260 l0 -100 35 0 35 0 0 100 0 100 -35 0 -35 0 0 -100z"/>
<path d="M8685 1348 c-21 -12 -35 -28 -35 -40 0 -14 61 -8 76 7 19 19 48 19
64 0 18 -22 5 -32 -51 -38 -28 -4 -62 -13 -75 -22 -29 -19 -31 -55 -6 -78 22
-20 102 -23 121 -4 11 10 14 10 18 0 3 -7 21 -13 41 -13 l37 0 -3 89 c-3 83
-5 89 -28 100 -32 14 -133 14 -159 -1z m99 -139 c-21 -23 -52 -25 -60 -4 -9
21 12 43 44 47 33 4 40 -16 16 -43z"/>
<path d="M8940 1260 l0 -100 35 0 35 0 0 60 c0 57 2 62 30 78 35 20 42 62 11
62 -11 0 -23 -5 -27 -11 -4 -8 -9 -8 -17 0 -6 6 -24 11 -39 11 l-28 0 0 -100z"/>
<path d="M9120 1260 l0 -100 35 0 35 0 0 69 c0 75 13 98 50 86 18 -6 20 -15
20 -81 l0 -74 40 0 40 0 0 75 c0 72 1 75 26 81 36 9 44 -7 44 -88 l0 -68 35 0
35 0 0 86 c0 71 -3 89 -17 100 -22 17 -95 18 -111 2 -9 -9 -18 -9 -37 0 -32
15 -80 15 -106 2 -13 -7 -19 -7 -19 0 0 5 -16 10 -35 10 l-35 0 0 -100z"/>
</g>
</svg>
